<?xml version="1.0" encoding="utf-8"?>
<svg version="1.1" xmlns="http://www.w3.org/2000/svg" xmlns:xlink="http://www.w3.org/1999/xlink" x="0px" y="0px"
	 viewBox="0 298.8 612 194.4" enable-background="new 0 298.8 612 194.4" xml:space="preserve">
<linearGradient id="SVGID_1_" gradientUnits="userSpaceOnUse" x1="-27.1503" y1="36.3844" x2="37.1597" y2="36.3844" gradientTransform="matrix(2.9448 0 0 2.9448 81.3659 298.8727)">
	<stop  offset="0" style="stop-color:#4D6399"/>
	<stop  offset="1" style="stop-color:#3E455D"/>
</linearGradient>
<path fill="url(#SVGID_1_)" d="M96.1,493.2c51.7,0,93.3-41,94.5-92l0,0c-1.6,42.6-36.6,77-79.2,77c-43.8,0-79.5-35.7-79.5-79.5
	c0-35.4,28.5-64.2,64.2-64.2c0.9,0,2.2,0,2.8,0c0.3,0,0.6,0,0.9,0c0.6,0,1.6,0,2.2,0.3c0.3,0,0.9,0,1.3,0c0.6,0,1.3,0.3,1.9,0.3
	c0.3,0,0.9,0,1.3,0.3c0.6,0,1.3,0.3,2.2,0.3c0.3,0,0.6,0,0.9,0.3c0.9,0.3,1.9,0.3,2.5,0.6h0.3c0.9,0.3,1.9,0.6,2.5,0.9
	c0.3,0,0.6,0.3,0.9,0.3c0.6,0.3,1.3,0.3,1.9,0.6c0.3,0,0.9,0.3,1.3,0.3c0.6,0.3,1.3,0.3,1.6,0.6c0.3,0.3,0.9,0.3,1.3,0.6
	c0.6,0.3,0.9,0.6,1.6,0.6c0.3,0.3,0.9,0.3,1.3,0.6c0.6,0.3,1.3,0.6,1.6,0.9c0.6,0.3,1.3,0.6,1.9,0.9c0.6,0.3,1.3,0.6,1.9,0.9
	c0.3,0.3,0.9,0.6,1.3,0.9c0.3,0.3,0.9,0.6,1.3,0.6c0.3,0.3,0.9,0.6,1.3,0.9c0.3,0.3,0.6,0.6,0.9,0.6c0.3,0.3,0.9,0.6,1.3,0.9
	c0.3,0.3,0.6,0.6,0.9,0.6c0.6,0.3,0.9,0.6,1.3,1.3c0.3,0.3,0.3,0.3,0.6,0.6c1.9,1.6,3.1,2.8,4.7,4.4c0.3,0.3,0.3,0.3,0.6,0.6
	c0.6,0.6,0.9,0.9,1.3,1.6c0.3,0.3,0.3,0.3,0.6,0.6c0.3,0.6,0.9,0.9,1.3,1.6c0,0.3,0.3,0.3,0.3,0.6c0.6,0.6,0.9,1.3,1.3,1.9l0,0
	c1.6,2.2,2.8,4.1,4.1,6.6l0,0c0.3,0.6,0.9,1.6,1.3,2.2c0,0,0,0.3,0.3,0.3c0.3,0.6,0.6,1.6,0.9,2.2v0.3c1.6,3.1,2.5,6.3,3.4,9.7h0.3
	c-9.7-37.6-41.6-64.5-79.5-64.5C35.7,318.8,0,354.5,0,398.3C1.6,450.6,43.8,493.2,96.1,493.2z"/>
<linearGradient id="SVGID_2_" gradientUnits="userSpaceOnUse" x1="-27.0989" y1="29.3152" x2="37.2111" y2="29.3152" gradientTransform="matrix(2.9448 0 0 2.9448 81.3659 298.8727)">
	<stop  offset="0" style="stop-color:#47597C"/>
	<stop  offset="1" style="stop-color:#4D7BAD"/>
</linearGradient>
<path fill="url(#SVGID_2_)" d="M96.1,298.8c-51.7,0-93.6,41-94.5,92l0,0c1.3-42.6,36.3-76.7,79.2-76.7c43.8,0,79.5,35.7,79.5,79.5
	c0,35.4-28.5,64.2-64.2,64.2c-0.9,0-2.2,0-2.8,0c-0.3,0-0.6,0-0.9,0c-0.6,0-1.6,0-2.2-0.3c-0.3,0-0.9,0-1.3,0
	c-0.6,0-1.3-0.3-1.9-0.3c-0.3,0-0.9,0-1.3-0.3c-0.6,0-1.3-0.3-2.2-0.3c-0.3,0-0.6,0-0.9-0.3c-0.9-0.3-1.9-0.3-2.5-0.6h-0.3
	c-0.6-0.3-1.6-0.3-2.5-0.6c-0.3,0-0.6-0.3-0.9-0.3c-0.6-0.3-1.3-0.3-1.9-0.6c-0.3,0-0.9-0.3-1.3-0.3c-0.6-0.3-1.3-0.3-1.6-0.6
	c-0.3-0.3-0.9-0.3-1.3-0.6c-0.6-0.3-0.9-0.6-1.6-0.6c-0.3-0.3-0.9-0.3-1.3-0.6c-0.6-0.3-1.3-0.6-1.6-0.9c-0.6-0.3-1.3-0.6-1.9-0.9
	c-0.6-0.3-1.3-0.6-1.9-0.9c-0.3-0.3-0.9-0.6-1.3-0.9c-0.3-0.3-0.9-0.6-1.3-0.6c-0.3-0.3-0.9-0.6-1.3-0.9c-0.3-0.3-0.6-0.6-0.9-0.6
	c-0.3-0.3-0.9-0.6-1.3-0.9c-0.3-0.3-0.6-0.6-0.9-0.6c-0.6-0.3-0.9-0.6-1.3-1.3c-0.3-0.3-0.3-0.3-0.6-0.6c-1.9-1.6-3.1-2.8-4.7-4.4
	c-0.3-0.3-0.3-0.3-0.6-0.6c-0.6-0.6-0.9-0.9-1.3-1.6c-0.3-0.3-0.3-0.3-0.6-0.6c-0.3-0.6-0.9-0.9-1.3-1.6c0-0.3-0.3-0.3-0.3-0.6
	c-0.6-0.6-0.9-1.3-1.3-1.9l0,0c-1.6-2.2-2.8-4.1-4.1-6.6l0,0c-0.3-0.6-0.9-1.6-1.3-2.2c0,0,0-0.3-0.3-0.3c-0.3-0.6-0.6-1.6-0.9-2.2
	V419c-1.6-3.1-2.5-6.3-3.4-9.7h-0.3c7.5,35.7,39.4,62.3,77.3,62.3c43.8,0,79.5-35.7,79.5-79.5C191,341.1,148.4,298.8,96.1,298.8z"/>
<g enable-background="new    ">
	<path fill="#F9F9F9" d="M267.4,381.1c0,5.2-1.9,9.3-5.7,12.3c-3.8,3-9,4.5-15.7,4.5c-6.7,0-12.1-1-16.3-3.1v-9.1
		c2.7,1.3,5.5,2.3,8.6,3c3,0.7,5.8,1.1,8.4,1.1c3.8,0,6.6-0.7,8.4-2.2c1.8-1.4,2.7-3.4,2.7-5.8c0-2.2-0.8-4.1-2.5-5.6
		c-1.7-1.5-5.1-3.3-10.3-5.4c-5.4-2.2-9.2-4.7-11.4-7.4c-2.2-2.8-3.3-6.1-3.3-10.1c0-4.9,1.7-8.8,5.2-11.6c3.5-2.8,8.2-4.2,14.1-4.2
		c5.6,0,11.2,1.2,16.8,3.7l-3.1,7.9c-5.2-2.2-9.9-3.3-14-3.3c-3.1,0-5.5,0.7-7.1,2c-1.6,1.4-2.4,3.1-2.4,5.4c0,1.5,0.3,2.8,1,3.9
		c0.6,1.1,1.7,2.1,3.2,3.1c1.5,1,4.1,2.2,8,3.8c4.3,1.8,7.5,3.5,9.5,5c2,1.6,3.5,3.3,4.4,5.3C267,376.1,267.4,378.4,267.4,381.1z"/>
	<path fill="#F9F9F9" d="M300.4,397.9c-5.6,0-10-2-13.1-6.1h-0.6c0.4,3.8,0.6,6,0.6,6.8v18.2h-9.5v-64.3h7.6c0.2,0.8,0.7,2.8,1.3,6
		h0.5c3-4.5,7.4-6.8,13.3-6.8c5.6,0,9.9,2,13,6c3.1,4,4.7,9.7,4.7,17c0,7.3-1.6,13-4.7,17S306,397.9,300.4,397.9z M298.1,359.4
		c-3.8,0-6.5,1.1-8.2,3.3c-1.7,2.2-2.6,5.7-2.6,10.5v1.4c0,5.4,0.9,9.3,2.6,11.8c1.7,2.4,4.5,3.6,8.4,3.6c3.3,0,5.8-1.3,7.6-4
		c1.8-2.7,2.7-6.5,2.7-11.5c0-5-0.9-8.8-2.6-11.3C304.1,360.7,301.5,359.4,298.1,359.4z"/>
	<path fill="#F9F9F9" d="M368.4,397h-9.5v-27.4c0-3.4-0.7-6-2.1-7.7c-1.4-1.7-3.6-2.5-6.6-2.5c-4,0-6.9,1.2-8.8,3.6
		s-2.8,6.4-2.8,11.9V397h-9.5v-62.6h9.5v15.9c0,2.6-0.2,5.3-0.5,8.2h0.6c1.3-2.1,3.1-3.8,5.4-5s5-1.8,8-1.8
		c10.8,0,16.2,5.4,16.2,16.3V397z"/>
	<path fill="#F9F9F9" d="M401,397.9c-6.9,0-12.3-2-16.2-6.1c-3.9-4-5.9-9.6-5.9-16.7c0-7.3,1.8-13,5.4-17.2
		c3.6-4.2,8.6-6.2,14.9-6.2c5.9,0,10.5,1.8,13.9,5.4c3.4,3.6,5.1,8.5,5.1,14.7v5.1h-29.7c0.1,4.3,1.3,7.6,3.5,10s5.3,3.5,9.3,3.5
		c2.6,0,5.1-0.2,7.3-0.7c2.3-0.5,4.7-1.3,7.3-2.5v7.7c-2.3,1.1-4.6,1.9-7,2.3C406.7,397.6,404,397.9,401,397.9z M399.3,358.9
		c-3,0-5.4,1-7.2,2.9c-1.8,1.9-2.9,4.7-3.2,8.3H409c-0.1-3.7-0.9-6.5-2.7-8.4C404.6,359.8,402.3,358.9,399.3,358.9z"/>
	<path fill="#F9F9F9" d="M451.6,351.7c1.9,0,3.5,0.1,4.7,0.4l-0.9,8.8c-1.3-0.3-2.7-0.5-4.2-0.5c-3.8,0-6.9,1.2-9.2,3.7
		c-2.3,2.5-3.5,5.7-3.5,9.6V397h-9.5v-44.5h7.4l1.2,7.9h0.5c1.5-2.7,3.4-4.8,5.8-6.3C446.4,352.5,448.9,351.7,451.6,351.7z"/>
	<path fill="#F9F9F9" d="M464,340.7c0-1.7,0.5-3,1.4-3.9c0.9-0.9,2.2-1.4,4-1.4c1.7,0,3,0.5,3.9,1.4c0.9,0.9,1.4,2.2,1.4,3.9
		c0,1.6-0.5,2.9-1.4,3.8c-0.9,0.9-2.2,1.4-3.9,1.4c-1.7,0-3-0.5-4-1.4C464.5,343.6,464,342.3,464,340.7z M474.1,397h-9.5v-44.5h9.5
		V397z"/>
	<path fill="#F9F9F9" d="M519,397l-1.3-5.8h-0.5c-1.3,2.1-3.2,3.7-5.6,4.9c-2.4,1.2-5.2,1.8-8.3,1.8c-5.4,0-9.4-1.3-12.1-4
		c-2.7-2.7-4-6.8-4-12.2v-29.1h9.5V380c0,3.4,0.7,6,2.1,7.7c1.4,1.7,3.6,2.6,6.6,2.6c4,0,6.9-1.2,8.8-3.6c1.9-2.4,2.8-6.4,2.8-11.9
		v-22.2h9.5V397H519z"/>
	<path fill="#F9F9F9" d="M577.5,397H568v-27.5c0-3.4-0.6-6-1.9-7.6c-1.3-1.7-3.3-2.5-6-2.5c-3.7,0-6.3,1.2-8,3.6
		c-1.7,2.4-2.6,6.3-2.6,11.9V397h-9.5v-44.5h7.4l1.3,5.8h0.5c1.2-2.1,3-3.8,5.4-4.9c2.3-1.2,4.9-1.7,7.8-1.7c6.8,0,11.4,2.3,13.6,7
		h0.6c1.3-2.2,3.2-3.9,5.6-5.2c2.4-1.2,5.1-1.9,8.2-1.9c5.3,0,9.2,1.3,11.6,4c2.4,2.7,3.6,6.8,3.6,12.3v29h-9.5v-27.5
		c0-3.4-0.7-6-2-7.6c-1.3-1.7-3.3-2.5-6.1-2.5c-3.7,0-6.4,1.1-8.1,3.4s-2.6,5.8-2.6,10.6V397z"/>
</g>
<g enable-background="new    ">
	<path fill="#F9F9F9" d="M240.1,423c-3.2,0-5.7,1-7.5,3c-1.8,2-2.7,4.8-2.7,8.3c0,3.6,0.9,6.4,2.6,8.4c1.7,2,4.2,3,7.4,3
		c2.1,0,4.1-0.3,5.8-0.8v1.6c-1.7,0.6-3.8,0.9-6.2,0.9c-3.5,0-6.3-1.1-8.4-3.4s-3.1-5.5-3.1-9.6c0-2.6,0.5-4.8,1.5-6.8
		c1-2,2.4-3.5,4.2-4.5c1.8-1.1,3.9-1.6,6.4-1.6c2.5,0,4.7,0.5,6.6,1.4l-0.7,1.6C244,423.5,242.1,423,240.1,423z"/>
	<path fill="#F9F9F9" d="M266.3,437.6c0,3.1-0.7,5.5-2.2,7.2c-1.5,1.7-3.5,2.6-6.1,2.6c-1.6,0-3.1-0.4-4.3-1.2
		c-1.3-0.8-2.2-1.9-2.9-3.4c-0.7-1.5-1-3.2-1-5.1c0-3.1,0.7-5.4,2.2-7.2s3.5-2.6,6.1-2.6c2.6,0,4.6,0.9,6.1,2.6
		C265.6,432.2,266.3,434.6,266.3,437.6z M251.5,437.6c0,2.6,0.6,4.6,1.7,6c1.1,1.4,2.7,2.2,4.8,2.2c2.1,0,3.7-0.7,4.8-2.2
		c1.1-1.4,1.7-3.5,1.7-6c0-2.6-0.6-4.6-1.7-6c-1.1-1.4-2.8-2.1-4.8-2.1c-2.1,0-3.7,0.7-4.8,2.1S251.5,435,251.5,437.6z"/>
	<path fill="#F9F9F9" d="M284.6,447v-12.2c0-1.9-0.4-3.3-1.2-4.1c-0.8-0.9-2-1.3-3.7-1.3c-2.2,0-3.9,0.6-4.9,1.7s-1.6,3-1.6,5.5V447
		h-1.7v-18.8h1.4l0.3,2.6h0.1c1.2-2,3.4-2.9,6.5-2.9c4.3,0,6.4,2.3,6.4,6.9V447H284.6z"/>
	<path fill="#F9F9F9" d="M304,442.1c0,1.7-0.6,3-1.9,3.9c-1.3,0.9-3.1,1.4-5.4,1.4c-2.5,0-4.5-0.4-6-1.2v-1.8c1.9,0.9,3.9,1.4,6,1.4
		c1.9,0,3.3-0.3,4.2-0.9c1-0.6,1.4-1.4,1.4-2.5c0-0.9-0.4-1.7-1.1-2.4c-0.8-0.6-2-1.3-3.8-1.9c-1.9-0.7-3.2-1.3-4-1.8
		c-0.8-0.5-1.3-1-1.7-1.7c-0.4-0.6-0.6-1.4-0.6-2.3c0-1.4,0.6-2.5,1.8-3.3c1.2-0.8,2.8-1.2,4.9-1.2c2,0,3.9,0.4,5.8,1.1l-0.6,1.6
		c-1.8-0.8-3.5-1.1-5.1-1.1c-1.5,0-2.7,0.3-3.6,0.8s-1.3,1.2-1.3,2.1c0,1,0.3,1.8,1,2.3c0.7,0.6,2.1,1.2,4.1,2
		c1.7,0.6,2.9,1.2,3.7,1.6c0.8,0.5,1.3,1,1.7,1.7C303.8,440.6,304,441.3,304,442.1z"/>
	<path fill="#F9F9F9" d="M310.3,428.3v12.1c0,1.9,0.4,3.3,1.2,4.1c0.8,0.9,2,1.3,3.7,1.3c2.2,0,3.9-0.6,4.9-1.7
		c1.1-1.1,1.6-3,1.6-5.5v-10.4h1.7V447H322l-0.3-2.6h-0.1c-1.2,2-3.4,2.9-6.5,2.9c-4.3,0-6.4-2.3-6.4-6.8v-12.3H310.3z"/>
	<path fill="#F9F9F9" d="M331.4,447h-1.7v-26.8h1.7V447z"/>
	<path fill="#F9F9F9" d="M342.6,445.8c1.1,0,2-0.1,2.8-0.3v1.4c-0.8,0.3-1.8,0.4-2.9,0.4c-1.7,0-2.9-0.4-3.7-1.3s-1.2-2.3-1.2-4.2
		v-12.1H335v-1l2.8-0.8l0.9-4.2h0.9v4.5h5.5v1.5h-5.5v11.9c0,1.4,0.3,2.5,0.8,3.2C340.8,445.5,341.5,445.8,342.6,445.8z"/>
	<path fill="#F9F9F9" d="M349.3,423c0-1.1,0.4-1.7,1.1-1.7c0.4,0,0.6,0.1,0.8,0.4c0.2,0.3,0.3,0.7,0.3,1.2c0,0.5-0.1,0.9-0.3,1.2
		c-0.2,0.3-0.5,0.4-0.8,0.4C349.6,424.7,349.3,424.2,349.3,423z M351.2,447h-1.7v-18.8h1.7V447z"/>
	<path fill="#F9F9F9" d="M370.6,447v-12.2c0-1.9-0.4-3.3-1.2-4.1c-0.8-0.9-2-1.3-3.7-1.3c-2.2,0-3.9,0.6-4.9,1.7s-1.6,3-1.6,5.5V447
		h-1.7v-18.8h1.4l0.3,2.6h0.1c1.2-2,3.4-2.9,6.5-2.9c4.3,0,6.4,2.3,6.4,6.9V447H370.6z"/>
	<path fill="#F9F9F9" d="M393,428.3v1.2l-3.9,0.2c1,1.3,1.6,2.7,1.6,4.2c0,1.8-0.6,3.3-1.8,4.4c-1.2,1.1-2.8,1.7-4.8,1.7
		c-0.9,0-1.4,0-1.8-0.1c-0.7,0.4-1.2,0.8-1.6,1.3c-0.4,0.5-0.5,1-0.5,1.5c0,0.6,0.2,1,0.7,1.3c0.5,0.3,1.2,0.4,2.3,0.4h3.3
		c2,0,3.6,0.4,4.7,1.2c1.1,0.8,1.6,2,1.6,3.6c0,2-0.8,3.5-2.4,4.6c-1.6,1.1-3.9,1.6-6.9,1.6c-2.4,0-4.2-0.5-5.5-1.4
		c-1.3-0.9-1.9-2.2-1.9-3.8c0-1.3,0.4-2.4,1.2-3.2c0.8-0.9,1.9-1.4,3.3-1.7c-0.6-0.2-1-0.6-1.4-1c-0.3-0.4-0.5-1-0.5-1.5
		c0-1.3,0.8-2.4,2.4-3.3c-1.1-0.4-1.9-1.2-2.6-2.1c-0.6-1-0.9-2.1-0.9-3.3c0-1.9,0.6-3.4,1.8-4.5s2.8-1.7,4.8-1.7
		c1.2,0,2.2,0.1,2.9,0.4H393z M377.8,450.2c0,2.6,1.9,3.9,5.7,3.9c4.9,0,7.4-1.6,7.4-4.7c0-1.1-0.4-1.9-1.2-2.5
		c-0.8-0.5-2-0.8-3.7-0.8H383C379.5,446.1,377.8,447.5,377.8,450.2z M379.2,434.1c0,1.5,0.4,2.6,1.3,3.4s2.1,1.2,3.5,1.2
		c1.6,0,2.8-0.4,3.6-1.2c0.8-0.8,1.3-1.9,1.3-3.5c0-1.6-0.4-2.8-1.3-3.6c-0.9-0.8-2.1-1.2-3.6-1.2c-1.5,0-2.7,0.4-3.5,1.3
		C379.7,431.4,379.2,432.6,379.2,434.1z"/>
	<path fill="#F9F9F9" d="M416.4,434.3h9.3v11.5c-2.4,1-5.2,1.6-8.2,1.6c-4,0-7-1.1-9.2-3.4c-2.1-2.2-3.2-5.4-3.2-9.6
		c0-2.6,0.5-4.8,1.6-6.8s2.6-3.5,4.5-4.6c2-1.1,4.2-1.6,6.8-1.6c2.7,0,5.2,0.5,7.4,1.5l-0.7,1.6c-2.2-1-4.5-1.5-6.8-1.5
		c-3.3,0-6,1-7.9,3.1c-2,2.1-2.9,4.8-2.9,8.3c0,3.8,0.9,6.7,2.8,8.6c1.9,1.9,4.6,2.9,8.2,2.9c2.3,0,4.3-0.3,5.9-1v-8.9h-7.5V434.3z"
		/>
	<path fill="#F9F9F9" d="M438.9,427.9c0.8,0,1.6,0.1,2.6,0.2l-0.3,1.6c-0.8-0.2-1.6-0.3-2.4-0.3c-1.6,0-2.9,0.7-3.9,2
		c-1,1.4-1.5,3.1-1.5,5.1V447h-1.7v-18.8h1.4l0.2,3.4h0.1c0.8-1.4,1.6-2.3,2.5-2.9C436.6,428.2,437.7,427.9,438.9,427.9z"/>
	<path fill="#F9F9F9" d="M460.8,437.6c0,3.1-0.7,5.5-2.2,7.2c-1.5,1.7-3.5,2.6-6.1,2.6c-1.6,0-3.1-0.4-4.3-1.2s-2.2-1.9-2.9-3.4
		c-0.7-1.5-1-3.2-1-5.1c0-3.1,0.7-5.4,2.2-7.2s3.5-2.6,6.1-2.6c2.6,0,4.6,0.9,6.1,2.6S460.8,434.6,460.8,437.6z M446,437.6
		c0,2.6,0.6,4.6,1.7,6c1.1,1.4,2.7,2.2,4.8,2.2c2.1,0,3.7-0.7,4.8-2.2c1.1-1.4,1.7-3.5,1.7-6c0-2.6-0.6-4.6-1.7-6
		c-1.1-1.4-2.8-2.1-4.8-2.1c-2.1,0-3.7,0.7-4.8,2.1C446.6,433,446,435,446,437.6z"/>
	<path fill="#F9F9F9" d="M467.5,428.3v12.1c0,1.9,0.4,3.3,1.2,4.1c0.8,0.9,2,1.3,3.7,1.3c2.2,0,3.9-0.6,4.9-1.7
		c1.1-1.1,1.6-3,1.6-5.5v-10.4h1.7V447h-1.4l-0.3-2.6h-0.1c-1.2,2-3.4,2.9-6.5,2.9c-4.3,0-6.4-2.3-6.4-6.8v-12.3H467.5z"/>
	<path fill="#F9F9F9" d="M494.9,447.4c-2.9,0-5-1.1-6.3-3.2h-0.1l0.1,1.4c0,0.9,0.1,1.8,0.1,2.8v7.1h-1.7v-27.2h1.4l0.3,2.7h0.1
		c1.3-2,3.3-3,6.2-3c2.5,0,4.5,0.8,5.8,2.5c1.3,1.7,2,4.1,2,7.3c0,3.1-0.7,5.5-2.1,7.2C499.2,446.5,497.3,447.4,494.9,447.4z
		 M494.9,445.8c1.9,0,3.4-0.7,4.5-2.1c1.1-1.4,1.6-3.4,1.6-6c0-5.5-2-8.3-6-8.3c-2.2,0-3.8,0.6-4.8,1.8c-1,1.2-1.5,3.2-1.5,5.9v0.6
		c0,2.9,0.5,5,1.5,6.3S492.6,445.8,494.9,445.8z"/>
</g>
</svg>
