<?xml version="1.0" encoding="iso-8859-1"?>
<!DOCTYPE svg PUBLIC "-//W3C//DTD SVG 1.1//EN" "http://www.w3.org/Graphics/SVG/1.1/DTD/svg11.dtd">
<svg version="1.1" id="Capa_1" xmlns="http://www.w3.org/2000/svg" xmlns:xlink="http://www.w3.org/1999/xlink" x="0px" y="0px"
	 viewBox="0 0 239.874 239.874" style="enable-background:new 0 0 239.874 239.874;" xml:space="preserve">
<g>
	<path fill="#686b6c" d="M71.164,32.76C83.133,21.971,102.197,15,119.732,15c17.697,0,36.908,7.101,48.942,18.091
		c1.438,1.313,3.25,1.962,5.056,1.962c2.033,0,4.061-0.822,5.54-2.442c2.793-3.059,2.578-7.802-0.48-10.596
		C164.145,8.641,140.964,0,119.732,0C98.696,0,75.689,8.486,61.121,21.619c-3.077,2.773-3.323,7.516-0.549,10.592
		C63.345,35.288,68.088,35.533,71.164,32.76z"/>
	<path fill="#686b6c" d="M80.383,47.813c-3.078,2.772-3.325,7.515-0.552,10.592c2.772,3.078,7.514,3.325,10.592,0.552
		c6.537-5.89,18.897-10.165,29.389-10.165c10.581,0,23.029,4.355,29.598,10.356c1.438,1.315,3.25,1.963,5.057,1.963
		c2.033,0,4.06-0.822,5.539-2.441c2.794-3.058,2.58-7.802-0.479-10.596c-9.351-8.542-25.311-14.282-39.715-14.282
		C107.932,33.793,91.134,38.128,80.383,47.813z"/>
	<path fill="#686b6c" d="M211.925,80.183H27.949c-9.649,0-17.5,7.851-17.5,17.5v124.691c0,9.649,7.851,17.5,17.5,17.5
		h183.976c9.649,0,17.5-7.851,17.5-17.5V97.683C229.425,88.033,221.574,80.183,211.925,80.183z M211.925,95.183
		c0.309,0,0.604,0.066,0.879,0.174L123.31,163.97c-1.672,1.28-5.076,1.281-6.746-0.001L27.07,95.356
		c0.275-0.108,0.571-0.174,0.879-0.174H211.925z M211.925,224.874H27.949c-1.355,0-2.5-1.145-2.5-2.5V113.016l81.988,62.857
		c3.505,2.688,8.002,4.031,12.5,4.031c4.496,0,8.994-1.344,12.499-4.03l81.989-62.858v109.358
		C214.425,223.729,213.281,224.874,211.925,224.874z"/>
</g>
</svg>
